<svg width="454" height="115" viewBox="0 0 454 115" fill="none" xmlns="http://www.w3.org/2000/svg">
<path d="M11.65 68.4H22.85V75H3.1V39.9H11.65V68.4ZM25.2281 61C25.2281 58.1333 25.7615 55.6167 26.8281 53.45C27.9281 51.2833 29.4115 49.6167 31.2781 48.45C33.1448 47.2833 35.2281 46.7 37.5281 46.7C39.4948 46.7 41.2115 47.1 42.6781 47.9C44.1781 48.7 45.3281 49.75 46.1281 51.05V47.1H54.6781V75H46.1281V71.05C45.2948 72.35 44.1281 73.4 42.6281 74.2C41.1615 75 39.4448 75.4 37.4781 75.4C35.2115 75.4 33.1448 74.8167 31.2781 73.65C29.4115 72.45 27.9281 70.7667 26.8281 68.6C25.7615 66.4 25.2281 63.8667 25.2281 61ZM46.1281 61.05C46.1281 58.9167 45.5281 57.2333 44.3281 56C43.1615 54.7667 41.7281 54.15 40.0281 54.15C38.3281 54.15 36.8781 54.7667 35.6781 56C34.5115 57.2 33.9281 58.8667 33.9281 61C33.9281 63.1333 34.5115 64.8333 35.6781 66.1C36.8781 67.3333 38.3281 67.95 40.0281 67.95C41.7281 67.95 43.1615 67.3333 44.3281 66.1C45.5281 64.8667 46.1281 63.1833 46.1281 61.05ZM88.4137 47.1V75H79.8637V71.2C78.997 72.4333 77.8137 73.4333 76.3137 74.2C74.847 74.9333 73.2137 75.3 71.4137 75.3C69.2803 75.3 67.397 74.8333 65.7637 73.9C64.1303 72.9333 62.8637 71.55 61.9637 69.75C61.0637 67.95 60.6137 65.8333 60.6137 63.4V47.1H69.1137V62.25C69.1137 64.1167 69.597 65.5667 70.5637 66.6C71.5303 67.6333 72.8303 68.15 74.4637 68.15C76.1303 68.15 77.447 67.6333 78.4137 66.6C79.3803 65.5667 79.8637 64.1167 79.8637 62.25V47.1H88.4137ZM103.105 51.75C104.105 50.2167 105.355 49.0167 106.855 48.15C108.355 47.25 110.022 46.8 111.855 46.8V55.85H109.505C107.372 55.85 105.772 56.3167 104.705 57.25C103.638 58.15 103.105 59.75 103.105 62.05V75H94.5551V47.1H103.105V51.75ZM114.242 61C114.242 58.1333 114.775 55.6167 115.842 53.45C116.942 51.2833 118.425 49.6167 120.292 48.45C122.158 47.2833 124.242 46.7 126.542 46.7C128.508 46.7 130.225 47.1 131.692 47.9C133.192 48.7 134.342 49.75 135.142 51.05V47.1H143.692V75H135.142V71.05C134.308 72.35 133.142 73.4 131.642 74.2C130.175 75 128.458 75.4 126.492 75.4C124.225 75.4 122.158 74.8167 120.292 73.65C118.425 72.45 116.942 70.7667 115.842 68.6C114.775 66.4 114.242 63.8667 114.242 61ZM135.142 61.05C135.142 58.9167 134.542 57.2333 133.342 56C132.175 54.7667 130.742 54.15 129.042 54.15C127.342 54.15 125.892 54.7667 124.692 56C123.525 57.2 122.942 58.8667 122.942 61C122.942 63.1333 123.525 64.8333 124.692 66.1C125.892 67.3333 127.342 67.95 129.042 67.95C130.742 67.95 132.175 67.3333 133.342 66.1C134.542 64.8667 135.142 63.1833 135.142 61.05Z" fill="#858585"/>
<path d="M240.65 68.4H251.85V75H232.1V39.9H240.65V68.4ZM264.478 38V75H255.928V38H264.478ZM268.974 61C268.974 58.1333 269.508 55.6167 270.574 53.45C271.674 51.2833 273.158 49.6167 275.024 48.45C276.891 47.2833 278.974 46.7 281.274 46.7C283.241 46.7 284.958 47.1 286.424 47.9C287.924 48.7 289.074 49.75 289.874 51.05V47.1H298.424V75H289.874V71.05C289.041 72.35 287.874 73.4 286.374 74.2C284.908 75 283.191 75.4 281.224 75.4C278.958 75.4 276.891 74.8167 275.024 73.65C273.158 72.45 271.674 70.7667 270.574 68.6C269.508 66.4 268.974 63.8667 268.974 61ZM289.874 61.05C289.874 58.9167 289.274 57.2333 288.074 56C286.908 54.7667 285.474 54.15 283.774 54.15C282.074 54.15 280.624 54.7667 279.424 56C278.258 57.2 277.674 58.8667 277.674 61C277.674 63.1333 278.258 64.8333 279.424 66.1C280.624 67.3333 282.074 67.95 283.774 67.95C285.474 67.95 286.908 67.3333 288.074 66.1C289.274 64.8667 289.874 63.1833 289.874 61.05ZM317.16 67L323.21 47.1H332.31L322.41 75H311.86L301.96 47.1H311.11L317.16 67ZM334.209 61C334.209 58.1333 334.742 55.6167 335.809 53.45C336.909 51.2833 338.392 49.6167 340.259 48.45C342.125 47.2833 344.209 46.7 346.509 46.7C348.475 46.7 350.192 47.1 351.659 47.9C353.159 48.7 354.309 49.75 355.109 51.05V47.1H363.659V75H355.109V71.05C354.275 72.35 353.109 73.4 351.609 74.2C350.142 75 348.425 75.4 346.459 75.4C344.192 75.4 342.125 74.8167 340.259 73.65C338.392 72.45 336.909 70.7667 335.809 68.6C334.742 66.4 334.209 63.8667 334.209 61ZM355.109 61.05C355.109 58.9167 354.509 57.2333 353.309 56C352.142 54.7667 350.709 54.15 349.009 54.15C347.309 54.15 345.859 54.7667 344.659 56C343.492 57.2 342.909 58.8667 342.909 61C342.909 63.1333 343.492 64.8333 344.659 66.1C345.859 67.3333 347.309 67.95 349.009 67.95C350.709 67.95 352.142 67.3333 353.309 66.1C354.509 64.8667 355.109 63.1833 355.109 61.05ZM368.144 61C368.144 58.1333 368.677 55.6167 369.744 53.45C370.844 51.2833 372.327 49.6167 374.194 48.45C376.061 47.2833 378.144 46.7 380.444 46.7C382.277 46.7 383.944 47.0833 385.444 47.85C386.977 48.6167 388.177 49.65 389.044 50.95V38H397.594V75H389.044V71C388.244 72.3333 387.094 73.4 385.594 74.2C384.127 75 382.411 75.4 380.444 75.4C378.144 75.4 376.061 74.8167 374.194 73.65C372.327 72.45 370.844 70.7667 369.744 68.6C368.677 66.4 368.144 63.8667 368.144 61ZM389.044 61.05C389.044 58.9167 388.444 57.2333 387.244 56C386.077 54.7667 384.644 54.15 382.944 54.15C381.244 54.15 379.794 54.7667 378.594 56C377.427 57.2 376.844 58.8667 376.844 61C376.844 63.1333 377.427 64.8333 378.594 66.1C379.794 67.3333 381.244 67.95 382.944 67.95C384.644 67.95 386.077 67.3333 387.244 66.1C388.444 64.8667 389.044 63.1833 389.044 61.05ZM416.48 75.4C413.746 75.4 411.28 74.8167 409.08 73.65C406.913 72.4833 405.196 70.8167 403.93 68.65C402.696 66.4833 402.08 63.95 402.08 61.05C402.08 58.1833 402.713 55.6667 403.98 53.5C405.246 51.3 406.98 49.6167 409.18 48.45C411.38 47.2833 413.846 46.7 416.58 46.7C419.313 46.7 421.78 47.2833 423.98 48.45C426.18 49.6167 427.913 51.3 429.18 53.5C430.446 55.6667 431.08 58.1833 431.08 61.05C431.08 63.9167 430.43 66.45 429.13 68.65C427.863 70.8167 426.113 72.4833 423.88 73.65C421.68 74.8167 419.213 75.4 416.48 75.4ZM416.48 68C418.113 68 419.496 67.4 420.63 66.2C421.796 65 422.38 63.2833 422.38 61.05C422.38 58.8167 421.813 57.1 420.68 55.9C419.58 54.7 418.213 54.1 416.58 54.1C414.913 54.1 413.53 54.7 412.43 55.9C411.33 57.0667 410.78 58.7833 410.78 61.05C410.78 63.2833 411.313 65 412.38 66.2C413.48 67.4 414.846 68 416.48 68ZM444.166 51.75C445.166 50.2167 446.416 49.0167 447.916 48.15C449.416 47.25 451.082 46.8 452.916 46.8V55.85H450.566C448.432 55.85 446.832 56.3167 445.766 57.25C444.699 58.15 444.166 59.75 444.166 62.05V75H435.616V47.1H444.166V51.75Z" fill="#858585"/>
<path d="M212 39L212 75L203 75L203 47L185 47L185 39L212 39Z" fill="#7B61FF"/>
<path d="M164 75L164 39L173 39L173 67L191 67L191 75L164 75Z" fill="#7B61FF"/>
</svg>
