<?xml version="1.0" encoding="UTF-8"?>
<svg id="Layer_1" data-name="Layer 1" xmlns="http://www.w3.org/2000/svg" version="1.1" viewBox="0 0 1140.13 143.59">
  <defs>
    <style>
      .cls-1 {
        fill: #fff;
        stroke-width: 0px;
      }
    </style>
  </defs>
  <path class="cls-1" d="M793.09,0c-53.97,0-73.54,35.9-73.54,71.79,0,35.9,19.57,71.79,73.54,71.79s73.54-35.9,73.54-71.79S847.06,0,793.09,0ZM793.09,114.05c-28.22,0-35.64-15.18-35.64-42.25s7.42-42.26,35.64-42.26,35.64,15.18,35.64,42.26-7.42,42.25-35.64,42.25Z"/>
  <polygon class="cls-1" points="433.03 3.4 388.59 3.4 356.92 43.6 325.24 3.4 280.81 3.4 334.7 71.79 280.81 140.19 325.24 140.19 356.92 99.99 388.59 140.19 433.03 140.19 379.13 71.79 433.03 3.4"/>
  <polygon class="cls-1" points="34.56 31.58 34.56 140.19 0 140.19 0 3.4 59.45 3.4 104.09 112.01 104.09 3.4 138.65 3.4 138.65 140.19 79.2 140.19 34.56 31.58"/>
  <path class="cls-1" d="M663.01,3.4h-76.52v136.79h36.62v-44.64h39.91c31.47,0,44.02-20.74,44.02-46.08s-12.55-46.08-44.02-46.08ZM651.29,67.68h-28.18V31.27h28.18c12.96,0,17.9,7.41,17.9,18.2s-4.94,18.2-17.9,18.2Z"/>
  <path class="cls-1" d="M973.05,77.45c17.07-3.5,29.62-16.66,29.62-36.2,0-22.01-15.02-37.85-45.87-37.85h-75.7v136.79h36.62v-49.57h25.31c11.73,0,20.16,6.17,20.16,19.34v30.24h36.62v-32.3c0-20.16-11.98-27.36-26.75-30.44ZM946.52,64.8h-28.81V31.27h28.81c13.25,0,18.29,6.82,18.29,16.76s-5.05,16.77-18.29,16.77Z"/>
  <g>
    <path class="cls-1" d="M445.55,31.99V3.4h124.25v28.59h-124.25Z"/>
    <polygon class="cls-1" points="489.47 140.19 489.47 31.99 525.88 68.4 525.88 140.19 489.47 140.19"/>
  </g>
  <g>
    <polygon class="cls-1" points="195.43 111.6 267.64 111.6 267.64 140.19 159.23 140.19 159.23 3.4 267.64 3.4 267.64 31.99 195.43 31.99 195.43 111.6"/>
    <polygon class="cls-1" points="195.43 85.06 262.5 85.06 262.5 58.52 221.97 58.52 195.43 85.06"/>
  </g>
  <g>
    <path class="cls-1" d="M1015.89,31.99V3.4h124.25v28.59h-124.25Z"/>
    <polygon class="cls-1" points="1059.8 140.19 1059.8 31.99 1096.21 68.4 1096.21 140.19 1059.8 140.19"/>
  </g>
</svg>