<?xml version="1.0" encoding="UTF-8"?>
<svg id="Capa_2" data-name="Capa 2" xmlns="http://www.w3.org/2000/svg" viewBox="0 0 103.6 127.96">
  <g id="graphics">
    <g>
      <path d="M58.31,24.33c.03.2,1.2,1.07,1.58,2.05,2,5.25-4.46,6.64-4.56,7.32,2.97,8.62,7.4,19.6,14.16,25.95,6.99,6.58,16.61,7.54,23.87,15.24,1.94,2.06,7.22,9.59,2.41,10.59-2.01-.19-3.57-4.72-5.05-6.28-2.79-2.95-7.42-5.95-11.2-7.46-.58-.23-1.43-.96-1.83-.25.66.58,1.21,1.28,1.65,2.05,1.56,2.67,4.66,9.69,6.18,11.48,1.66,1.95,7.68,5.25,10.3,7.76,2.11,2.02,9.61,10.76,7.35,13.6-.55.7-1.87.96-2.66.44-2.41-1.61-5.33-10.01-9.44-11.32-.04,2.93,4.72,9.47,1.45,11.65-2.81,1.87-4.49-6.6-5.19-8.24-.8-1.87-3.34-8.12-4.38-9.25-1.65-1.81-5.71-2.88-7.86-4.18-.92.68-.33,1.14-.26,1.84.25,2.52,1.23,5.11,1.5,7.91.69,7.24-1.28,16.98,1.62,23.62,1.02,2.34,6.39,7.69,2.61,9.02-3.2,1.13-6.99-7.19-7.81-9.68-2.08-6.33-.84-11.81-1.15-18.03-.12-2.51-1.94-16.68-3.09-17.83l-12.4-6.76c.67,3.87.35,8.64,1.78,12.31,1.13,2.91,8.59,14.98,8.55,16.44-.06,1.93-1.7,2.24-3.16,1.38s-2.98-4.43-3.99-5.87c-.42-.59-1.13-1.37-1.46-.25-.13.44.39,8.16.55,9.22.32,2.15,2.79,8.77,2.67,9.81-.08.72-.4,1.12-1.08,1.33-3.54,1.53-5.85-7.43-6.29-9.85-1.22-6.6.6-21.68-2.12-26.39-2.8-4.87-7.82-9.7-11.75-13.69l-.93.7c3.07,9.86-.61,20.17,3.86,30.04.96,2.12,4.76,6.78,3.58,8.46-2.39,3.4-7.02-4.05-8.2-6.36-6.29-12.27-.03-27.67-6.23-38.86-1.54-2.78-6.99-9.73-9.62-11.1-1.89-.99-4.09,2.88-7.95,1.29-2.51-1.03-2.13-3.53-2.94-4.06-.35-.23-1.51.21-2.31-.07C3.11,47.97-.05,37.73,0,31.86.16,12.17,19.4-3.35,38.59.62c8.54,1.77,17.87,7.88,20.56,16.56,1.24,4-.9,6.63-.83,7.14ZM5.49,17.57c-4.12,6.78-5.12,21.09.21,27.4,7.97,9.44,10.26-4.22,16.07-8.56,2.42-1.81,7.26-1.99,10.12-3.46,5.52-2.83,7.38-8.04,14.4-8.8,5.48-.59,14.67,2.78,10.66-7.53C48.51-5.15,16.71-.87,5.49,17.57ZM56.71,25.45c-3.94,1.93-8.53-.24-12.58,1.1-3.97,1.31-6.3,4.98-9.73,7.16-3.55,2.26-7.95,1.82-11.26,4.14-4.11,2.88-6.69,8.95-9.94,12.86,5.53,6.61,9.52-4.59,12.97-7.11,2.04-1.48,6.62-1.44,9.38-2.82,3.51-1.77,9.43-7.96,12.69-8.69.93-.21,2.11.54,3.38.44,4.15-.33,9.81-3.19,5.1-7.08ZM23.43,50.17c-.97,1.04-.72.67-.04,1.41,2.64,2.87,5.63,5.26,7.96,8.45,10.94,15.03-.87,34.17,12.49,48.29,1.11.1.73-1.03.47-1.66-.91-2.17-2.94-4.2-3.93-6.85-4.52-12.12,1.68-34.55-10.12-44.1l-6.83-5.53ZM27.71,44.88c-1.97.32,1.07,6.43,1.59,7.29s.94,1.53,1.8,2.02l-3.4-9.31ZM30.82,43.75c-.83.75-.89,1.25-.8,2.3.14,1.6,3.28,8.44,4.28,10.03,4.12,6.59,10.72,12.84,16.26,18.25l-.41-3.78c-6.74-6.76-12.15-13.63-16.61-22.05-.88-1.66-.71-3.72-2.73-4.75ZM34.36,42.98c-.92.75-.38,1.39-.12,2.23,3.34,10.91,14.67,22.88,23.81,29.39,11.85,8.45,28.4,11.72,38.1,22.98,2.03,2.36,3.31,5.29,5.25,7.71.94-.79.39-1.38.02-2.22-6.81-15.15-26.46-19.93-39.29-28.14-7.79-4.99-16.22-13.07-21.53-20.72-2.49-3.59-4.13-7.46-6.22-11.24ZM47.02,59.78c-.35-6.72-4.14-13.02-8.32-18.14-.88-.4-2.81.2-2.5,1.41,1.28,4.98,7.82,12.36,10.82,16.73ZM51.51,64.15c-1.5-8.73-4.58-18.62-11.46-24.59l5.02,8.54c1.15,2.96,2.64,5.91,3.71,8.88.91,2.52.64,5.46,2.73,7.17ZM46.1,35.69c-2.78.66,2.86,8.79,3.65,9.9,3.68,5.15,8.31,9.46,11.67,14.9,3.25,5.26,5.17,11.24,7.99,16.7-2.23-16.82-16.66-26.87-23.31-41.5ZM54.01,45.74l-3.95-11.08c-.24-.72-1.51-.91-1.92-.59-1.48,1.19,4.67,10.19,5.87,11.67ZM95.86,83.29c-.05-2.9-2.22-5.88-4.22-7.82-8.34-8.04-18.34-8.73-25.83-17.45-6.42-7.46-7.92-14.66-11.67-22.97-.27-.59-.58-1.88-1.55-1.04-.74.65-.02,1.7.15,2.4,3.44,13.63,10.83,19.68,18.6,30.31,3.04,4.16,6.42,11.84,9.31,15.15.55.63,1.31,1.08,1.94,1.61.96.05-4.09-8.27-4.55-8.99-1.4-2.24-3.24-4.39-4.74-6.56.34-.59.64-.8,1.33-.72.81.09,10.68,5.47,11.96,6.36,4.08,2.83,6.41,5.86,9.29,9.73ZM66.32,74.7c-3.82-10.71-10.1-19.94-18.25-27.92l3.85,10.68c.57,1.77,1.75,8.7,2.26,9.44,1.41,2.07,8.23,6.58,10.74,7.77.48.23,1.1.67,1.4.03ZM51.67,81.07c.55-2-.84-3.38-1.91-4.84-3.68-5-9.37-9.27-13.39-14.11l2.06,4.41c4.82,4.48,9.4,9.2,13.24,14.53ZM52.79,72.49l1.65,13.73c.97,10.44-1.68,22.87,4.36,32-1.05-4.84-2.13-9.06-2.51-14.05-.65-8.61.14-17.35-1.49-26.05-.32-1.74-.63-4.55-2.01-5.63ZM78.24,80.71l-11.41-16.54,5.03,13.38c.59.95,1.54,1.39,2.43,1.95.73.46,3.09,1.75,3.95,1.21ZM64.9,103.48l-7.28-11.73c-.02,2.65,2.01,5.69,3.44,7.9.72,1.12,2.22,4.4,3.83,3.83ZM71.32,83.86l1.99,16.92c-.24,7.4-.62,18.35,4.89,24.12.71.74.92,1.3,2.16.94-8.6-9.81-4.32-22.85-6.45-34.8-.41-2.32-.75-5.69-2.59-7.18ZM91.74,105.5c1.14-.04-3.32-13.01-5.06-13.57l5.06,13.57Z"/>
      <path d="M21.13,9.08c5.36-.4,6.56,9.54.81,9.66-5.67.11-6.28-9.25-.81-9.66ZM21.58,17.18c4.99-1.48,1.04-8.5-1.95-5.37-1.64,1.72-.12,4.67,1.95,5.37Z"/>
      <path d="M11.52,25.09c-5.11-.89-4.12-8.59.97-8.25,3.47,2.38,1.68,5.97-.97,8.25Z"/>
      <path d="M36.24,8.91c-1.35,5.72-10.4.78-6.36-2.61,2.24-1.88,5.52.13,6.36,2.61ZM30.33,8.31c.49.93,3.38,2.16,3.96,1.39,1.17-1.56-2.77-4.15-3.96-1.39Z"/>
      <path d="M26.37,5.91c.3,1.05-1.51,2.86-3.01,1.72-2.55-1.94,2.24-4.41,3.01-1.72Z"/>
    </g>
  </g>
</svg>